<svg width="171" height="184" viewBox="0 0 171 184" fill="none" xmlns="http://www.w3.org/2000/svg">
<path d="M46.5305 23.9456L31.7011 35.0063L26.451 53.8924L43.3464 55.6373L42.2326 60.8343L25.3372 59.0895L20.2774 81.5761C19.4679 85.174 22.5309 86.5488 24.1636 86.7865L59.0484 92.5791L63.2335 98.1902L42.6423 94.8355L55.4966 112.07L75.0891 114.922L79.5732 120.934L65.6804 118.197L74.6485 130.221L109.934 135.714C108.539 133.844 106.711 129.386 110.558 126.516C114.406 123.646 118.158 126.669 119.553 128.54L125.645 94.0559L116.677 82.0321L113.641 95.524L110.352 91.1153L113.809 69.8244L100.955 52.5902L97.4982 73.8811L93.612 68.6708C95.2395 58.3084 98.6371 36.604 99.2075 32.6855C99.7779 28.767 96.6551 27.312 95.0224 27.0744L71.0278 25.0107L67.4827 42.0013L62.9854 40.9894L66.3268 25.3982L46.5305 23.9456Z" fill="white" stroke="#F9F9F9" stroke-width="2"/>
<path d="M111.238 134.118C109.917 132.347 110.282 129.841 112.053 128.52V128.52C113.824 127.199 116.33 127.564 117.651 129.335L134.989 152.581L128.577 157.364L111.238 134.118Z" fill="white"/>
</svg>
